<svg width="35" height="35" viewBox="0 0 35 35" fill="none" xmlns="http://www.w3.org/2000/svg">
<g clip-path="url(#clip0_345_171)">
<path d="M34.4192 19.1406H34.3837C34.2389 19.1315 34.1037 19.0652 34.0078 18.9564C33.9119 18.8476 33.8632 18.7051 33.8723 18.5604C33.8948 18.2109 33.9062 17.8555 33.9062 17.5C33.9062 13.1488 32.1777 8.9758 29.101 5.89903C26.0242 2.82226 21.8512 1.09375 17.5 1.09375C13.1488 1.09375 8.9758 2.82226 5.89903 5.89903C2.82226 8.9758 1.09375 13.1488 1.09375 17.5C1.09375 17.8555 1.10523 18.2109 1.12766 18.5593C1.13679 18.7043 1.08794 18.8471 0.991842 18.9561C0.895745 19.0651 0.760275 19.1315 0.615234 19.1406C0.470194 19.1498 0.327464 19.1009 0.218444 19.0048C0.109424 18.9087 0.0430438 18.7732 0.0339063 18.6282C0.0113021 18.2552 0 17.8792 0 17.5C0 12.8587 1.84374 8.40752 5.12563 5.12563C8.40752 1.84374 12.8587 0 17.5 0C22.1413 0 26.5925 1.84374 29.8744 5.12563C33.1563 8.40752 35 12.8587 35 17.5C35 17.8788 34.9882 18.2549 34.9645 18.6282C34.9557 18.7669 34.8945 18.8971 34.7932 18.9923C34.6919 19.0874 34.5582 19.1405 34.4192 19.1406Z" fill="#945298"/>
<path d="M28.9614 19.1406H28.9373C28.7925 19.1344 28.656 19.0708 28.5579 18.964C28.4599 18.8571 28.4083 18.7157 28.4145 18.5708C28.4298 18.2175 28.4375 17.8598 28.4375 17.5005C28.4375 8.45359 23.5309 1.09375 17.5 1.09375C11.4691 1.09375 6.5625 8.45359 6.5625 17.5C6.5625 17.8593 6.57016 18.217 6.58547 18.5702C6.58856 18.6421 6.57747 18.7138 6.55284 18.7813C6.52821 18.8488 6.49052 18.9109 6.44192 18.9638C6.39332 19.0168 6.33477 19.0597 6.2696 19.09C6.20443 19.1203 6.13393 19.1375 6.06211 19.1406C5.99029 19.1437 5.91857 19.1326 5.85104 19.108C5.78351 19.0834 5.72149 19.0457 5.66852 18.9971C5.61556 18.9485 5.57268 18.8899 5.54235 18.8248C5.51201 18.7596 5.49481 18.6891 5.49172 18.6173C5.47641 18.2476 5.46875 17.8752 5.46875 17.5C5.46875 7.85039 10.8659 0 17.5 0C24.1341 0 29.5312 7.85039 29.5312 17.5C29.5312 17.8755 29.5232 18.2479 29.5072 18.6173C29.5011 18.758 29.441 18.891 29.3393 18.9885C29.2376 19.086 29.1023 19.1405 28.9614 19.1406Z" fill="#945298"/>
<path d="M22.412 19.1406H22.4016C22.3298 19.1393 22.2589 19.1239 22.193 19.0952C22.1271 19.0665 22.0675 19.0251 22.0176 18.9733C21.9677 18.9216 21.9285 18.8605 21.9023 18.7936C21.876 18.7267 21.8632 18.6552 21.8646 18.5834C21.8715 18.2257 21.875 17.8646 21.875 17.5C21.875 7.83125 19.5694 1.09375 17.5 1.09375C15.4306 1.09375 13.125 7.83125 13.125 17.5C13.125 17.8646 13.1285 18.2257 13.1354 18.5834C13.1368 18.6552 13.124 18.7267 13.0977 18.7936C13.0715 18.8605 13.0323 18.9216 12.9824 18.9733C12.9325 19.0251 12.8729 19.0665 12.807 19.0952C12.7411 19.1239 12.6702 19.1393 12.5984 19.1406C12.5261 19.1437 12.454 19.1321 12.3864 19.1065C12.3188 19.0809 12.2571 19.0419 12.205 18.9917C12.153 18.9415 12.1116 18.8813 12.0835 18.8147C12.0555 18.7481 12.0412 18.6764 12.0416 18.6041C12.0347 18.2392 12.0312 17.8711 12.0312 17.5C12.0312 9.01633 13.9453 0 17.5 0C21.0547 0 22.9688 9.01633 22.9688 17.5C22.9688 17.8708 22.9653 18.2388 22.9584 18.6041C22.9556 18.7473 22.8969 18.8836 22.7948 18.9839C22.6926 19.0843 22.5552 19.1405 22.412 19.1406Z" fill="#945298"/>
<path d="M32.2656 18.0469H0.546875C0.401835 18.0469 0.262735 17.9893 0.160176 17.8867C0.057617 17.7841 0 17.645 0 17.5C0 17.355 0.057617 17.2159 0.160176 17.1133C0.262735 17.0107 0.401835 16.9531 0.546875 16.9531H32.2656C32.4107 16.9531 32.5498 17.0107 32.6523 17.1133C32.7549 17.2159 32.8125 17.355 32.8125 17.5C32.8125 17.645 32.7549 17.7841 32.6523 17.8867C32.5498 17.9893 32.4107 18.0469 32.2656 18.0469Z" fill="#945298"/>
<path d="M28.9844 8.20312H3.82812C3.68308 8.20312 3.54399 8.14551 3.44143 8.04295C3.33887 7.94039 3.28125 7.80129 3.28125 7.65625C3.28125 7.51121 3.33887 7.37211 3.44143 7.26955C3.54399 7.16699 3.68308 7.10938 3.82812 7.10938H28.9844C29.1294 7.10938 29.2685 7.16699 29.3711 7.26955C29.4736 7.37211 29.5312 7.51121 29.5312 7.65625C29.5312 7.80129 29.4736 7.94039 29.3711 8.04295C29.2685 8.14551 29.1294 8.20312 28.9844 8.20312Z" fill="#945298"/>
<path d="M7.10938 28.4375C6.09445 28.4363 5.12142 28.0327 4.40376 27.315C3.6861 26.5973 3.28241 25.6243 3.28125 24.6094V23.5156C3.28125 22.5003 3.68457 21.5266 4.40248 20.8087C5.12039 20.0908 6.09409 19.6875 7.10938 19.6875C8.12466 19.6875 9.09836 20.0908 9.81627 20.8087C10.5342 21.5266 10.9375 22.5003 10.9375 23.5156V24.6094C10.9363 25.6243 10.5327 26.5973 9.81499 27.315C9.09733 28.0327 8.1243 28.4363 7.10938 28.4375ZM7.10938 20.7812C6.38444 20.7821 5.68945 21.0705 5.17684 21.5831C4.66423 22.0957 4.37587 22.7907 4.375 23.5156V24.6094C4.375 25.3346 4.66309 26.0301 5.17588 26.5429C5.68867 27.0557 6.38417 27.3438 7.10938 27.3438C7.83458 27.3438 8.53008 27.0557 9.04287 26.5429C9.55567 26.0301 9.84375 25.3346 9.84375 24.6094V23.5156C9.84288 22.7907 9.55452 22.0957 9.04191 21.5831C8.5293 21.0705 7.83431 20.7821 7.10938 20.7812Z" fill="#945298"/>
<path d="M0.54691 34.9999C0.401869 34.9999 0.26277 34.9422 0.160211 34.8397C0.0576517 34.7371 3.47162e-05 34.598 3.47162e-05 34.453V32.1441C-0.00304541 31.5346 0.198914 30.9417 0.573447 30.4609C0.94798 29.98 1.47333 29.6391 2.06503 29.4928C3.72062 29.1254 5.4138 28.9547 7.10941 28.9842C8.04073 28.9815 8.9716 29.0256 9.89847 29.1166C9.96993 29.1238 10.0393 29.1449 10.1025 29.1789C10.1658 29.2129 10.2218 29.259 10.2672 29.3146C10.3127 29.3702 10.3467 29.4342 10.3674 29.503C10.3881 29.5718 10.3951 29.6439 10.3879 29.7154C10.3807 29.7869 10.3596 29.8562 10.3256 29.9195C10.2916 29.9827 10.2455 30.0387 10.1899 30.0842C10.1343 30.1296 10.0703 30.1637 10.0015 30.1844C9.93273 30.2051 9.86055 30.212 9.7891 30.2049C8.89859 30.1173 8.00421 30.075 7.10941 30.078C5.50174 30.0487 3.89621 30.2085 2.32589 30.5543C1.97199 30.6427 1.65809 30.8476 1.43463 31.1359C1.21117 31.4242 1.09112 31.7793 1.09378 32.1441V34.453C1.09378 34.598 1.03617 34.7371 0.933609 34.8397C0.83105 34.9422 0.69195 34.9999 0.54691 34.9999Z" fill="#945298"/>
<path d="M17.5 28.4375C16.4851 28.4363 15.512 28.0327 14.7944 27.315C14.0767 26.5973 13.673 25.6243 13.6719 24.6094V23.5156C13.6719 22.5003 14.0752 21.5266 14.7931 20.8087C15.511 20.0908 16.4847 19.6875 17.5 19.6875C18.5153 19.6875 19.489 20.0908 20.2069 20.8087C20.9248 21.5266 21.3281 22.5003 21.3281 23.5156V24.6094C21.327 25.6243 20.9233 26.5973 20.2056 27.315C19.488 28.0327 18.5149 28.4363 17.5 28.4375ZM17.5 20.7812C16.7751 20.7821 16.0801 21.0705 15.5675 21.5831C15.0549 22.0957 14.7665 22.7907 14.7656 23.5156V24.6094C14.7656 25.3346 15.0537 26.0301 15.5665 26.5429C16.0793 27.0557 16.7748 27.3438 17.5 27.3438C18.2252 27.3438 18.9207 27.0557 19.4335 26.5429C19.9463 26.0301 20.2344 25.3346 20.2344 24.6094V23.5156C20.2335 22.7907 19.9451 22.0957 19.4325 21.5831C18.9199 21.0705 18.2249 20.7821 17.5 20.7812Z" fill="#945298"/>
<path d="M24.0625 34.9999C23.9175 34.9999 23.7784 34.9422 23.6758 34.8397C23.5733 34.7371 23.5157 34.598 23.5157 34.453V32.1441C23.5184 31.7794 23.3984 31.4244 23.175 31.136C22.9517 30.8477 22.6379 30.6428 22.2841 30.5543C20.7136 30.2086 19.1079 30.0487 17.5 30.078C15.8924 30.0487 14.2868 30.2085 12.7165 30.5543C12.3626 30.6427 12.0487 30.8476 11.8253 31.1359C11.6018 31.4242 11.4817 31.7793 11.4844 32.1441V34.453C11.4844 34.598 11.4268 34.7371 11.3242 34.8397C11.2217 34.9422 11.0826 34.9999 10.9375 34.9999C10.7925 34.9999 10.6534 34.9422 10.5508 34.8397C10.4483 34.7371 10.3907 34.598 10.3907 34.453V32.1441C10.3876 31.5346 10.5895 30.9417 10.9641 30.4609C11.3386 29.98 11.864 29.6391 12.4557 29.4928C14.1112 29.1254 15.8044 28.9547 17.5 28.9842C19.1958 28.9547 20.8892 29.1254 22.545 29.4928C23.1366 29.6392 23.6618 29.9802 24.0362 30.461C24.4106 30.9419 24.6125 31.5346 24.6094 32.1441V34.453C24.6094 34.598 24.5518 34.7371 24.4492 34.8397C24.3467 34.9422 24.2076 34.9999 24.0625 34.9999Z" fill="#945298"/>
<path d="M27.8906 28.4375C26.8757 28.4363 25.9027 28.0327 25.185 27.315C24.4673 26.5973 24.0637 25.6243 24.0625 24.6094V23.5156C24.0625 22.5003 24.4658 21.5266 25.1837 20.8087C25.9016 20.0908 26.8753 19.6875 27.8906 19.6875C28.9059 19.6875 29.8796 20.0908 30.5975 20.8087C31.3154 21.5266 31.7188 22.5003 31.7188 23.5156V24.6094C31.7176 25.6243 31.3139 26.5973 30.5962 27.315C29.8786 28.0327 28.9056 28.4363 27.8906 28.4375ZM27.8906 20.7812C27.1657 20.7821 26.4707 21.0705 25.9581 21.5831C25.4455 22.0957 25.1571 22.7907 25.1562 23.5156V24.6094C25.1562 25.3346 25.4443 26.0301 25.9571 26.5429C26.4699 27.0557 27.1654 27.3438 27.8906 27.3438C28.6158 27.3438 29.3113 27.0557 29.8241 26.5429C30.3369 26.0301 30.625 25.3346 30.625 24.6094V23.5156C30.6241 22.7907 30.3358 22.0957 29.8232 21.5831C29.3106 21.0705 28.6156 20.7821 27.8906 20.7812Z" fill="#945298"/>
<path d="M34.4531 34.9998C34.3081 34.9998 34.169 34.9422 34.0664 34.8397C33.9639 34.7371 33.9063 34.598 33.9063 34.453V32.1441C33.909 31.7794 33.789 31.4243 33.5656 31.136C33.3423 30.8477 33.0285 30.6428 32.6747 30.5543C31.1042 30.2085 29.4985 30.0487 27.8906 30.078C26.9958 30.0749 26.1015 30.1173 25.2109 30.2048C25.0666 30.2194 24.9225 30.1759 24.8102 30.0841C24.6979 29.9924 24.6266 29.8597 24.6121 29.7154C24.5976 29.5711 24.641 29.4269 24.7328 29.3146C24.8246 29.2023 24.9573 29.1311 25.1016 29.1166C26.0284 29.0256 26.9593 28.9815 27.8906 28.9842C29.5864 28.9547 31.2798 29.1254 32.9356 29.4928C33.5272 29.6392 34.0524 29.9802 34.4268 30.461C34.8012 30.9419 35.0031 31.5346 35 32.1441V34.453C35 34.598 34.9424 34.7371 34.8398 34.8397C34.7373 34.9422 34.5982 34.9998 34.4531 34.9998Z" fill="#945298"/>
</g>
<defs>
<clipPath id="clip0_345_171">
<rect width="35" height="35" fill="white"/>
</clipPath>
</defs>
</svg>
