<svg width="74" height="31" viewBox="0 0 74 31" fill="none" xmlns="http://www.w3.org/2000/svg">
<path d="M50.3563 4.09554C44.1256 2.93849 38.3937 1.92868 32.2371 2.69888C29.3039 2.61051 25.8876 3.09149 23.0089 3.74016C20.5914 4.28491 18.1761 4.94927 15.788 5.62245C13.65 6.22513 11.4358 6.65995 9.33402 7.37832C5.14118 8.81139 -0.710474 14.5295 1.85423 19.7405C3.061 22.1924 5.41526 23.4735 7.82582 24.2817C13.062 26.0373 18.6872 27.1573 24.1201 28.0881C37.9745 30.4615 53.0028 31.1145 66.4356 26.1862C68.6773 25.3638 71.6153 23.659 72.686 21.2531C73.5849 19.2333 73.4599 16.9869 72.9952 14.7621C72.363 11.7358 70.0369 10.3021 67.6844 8.80084C63.0762 5.86004 58.4027 4.89334 53.2914 3.23186C45.6352 0.743132 37.801 0.496537 29.9567 0.60687C26.7451 0.652044 23.7194 1.65734 20.5966 2.4212C18.7167 2.88102 17.266 2.93387 14.3842 4.18523" stroke="white" stroke-linecap="round" stroke-dasharray="6 6"/>
</svg>
