<svg width="79" height="27" viewBox="0 0 79 27" fill="none" xmlns="http://www.w3.org/2000/svg">
<path d="M53.8766 3.55091C47.1967 2.5625 41.0515 1.70071 34.4456 2.38808C31.2996 2.31961 27.6338 2.74763 24.5443 3.31996C21.9497 3.80059 19.357 4.38524 16.7936 4.97747C14.4986 5.50768 12.1224 5.89214 9.8659 6.52285C5.36448 7.78107 -0.928463 12.7704 1.80761 17.2947C3.09501 19.4235 5.61658 20.5308 8.19989 21.2268C13.8113 22.7386 19.8419 23.6965 25.6666 24.4904C40.5204 26.5149 56.6381 27.0398 71.0605 22.7157C73.4673 21.9941 76.6236 20.5031 77.7789 18.4078C78.7488 16.6488 78.6212 14.6957 78.1291 12.7622C77.4597 10.1322 74.9688 8.89213 72.4497 7.59328C67.5153 5.04904 62.5051 4.22172 57.0274 2.79145C48.8223 0.649046 40.4198 0.456973 32.0056 0.575323C28.5606 0.623779 25.3122 1.50666 21.9605 2.17985C19.9428 2.58508 18.3866 2.63519 15.292 3.73164" stroke="#D9D9D9" stroke-linecap="round" stroke-dasharray="6 6"/>
</svg>
