<svg width="114" height="27" viewBox="0 0 114 27" fill="none" xmlns="http://www.w3.org/2000/svg">
<path d="M77.6607 3.77509C67.9905 2.83072 59.094 2.00937 49.5204 2.73739C44.9635 2.68897 39.6506 3.13947 35.1715 3.73037C31.4099 4.2266 27.6505 4.82665 23.9334 5.43409C20.6055 5.97791 17.1608 6.37675 13.8881 7.02066C7.3594 8.3052 -1.78813 13.3257 2.14667 17.8247C3.99811 19.9416 7.64383 21.0311 11.3816 21.7095C19.5007 23.1831 28.2304 24.1011 36.6631 24.8567C58.1674 26.7835 81.5122 27.2054 102.432 22.7975C105.923 22.0619 110.504 20.5535 112.191 18.4546C113.607 16.6924 113.435 14.7436 112.734 12.8166C111.781 10.1955 108.181 8.97333 104.54 7.69271C97.4081 5.18418 90.1556 4.39005 82.2296 2.99699C70.3574 0.910316 58.1868 0.771813 45.9973 0.943265C41.0065 1.01346 36.2954 1.91537 31.4358 2.60862C28.5105 3.02593 26.2558 3.08581 21.766 4.19995" stroke="#D9D9D9" stroke-linecap="round" stroke-dasharray="6 6"/>
</svg>
